<svg width="220" height="64" viewBox="0 0 220 64" fill="none" xmlns="http://www.w3.org/2000/svg">
  <rect x="2" y="6" width="52" height="52" rx="16" fill="#0F172A"/>
  <path d="M28 18C23.6 18 20 21.6 20 26C20 32.6 28 39.2 28 39.2C28 39.2 36 32.6 36 26C36 21.6 32.4 18 28 18Z" fill="#06B6D4"/>
  <path d="M35.5 34.5C42.5 34.5 48 40 48 47C48 49.3 47.4 51.5 46.2 53.3L42.5 50.5C43.2 49.4 43.6 48.2 43.6 47C43.6 42.4 40 38.8 35.5 38.8C34.3 38.8 33.1 39.1 32.1 39.8L29.2 36.1C31.1 35 33.2 34.5 35.5 34.5Z" fill="#10B981"/>
  <circle cx="48" cy="47" r="3.5" fill="#10B981"/>
  <text x="68" y="40" fill="#0F172A" font-family="Inter, Segoe UI, Arial, sans-serif" font-size="32" font-weight="700" letter-spacing="1.5">ORDON</text>
</svg>
